<svg width="328" height="157" viewBox="0 0 328 157" fill="none" xmlns="http://www.w3.org/2000/svg">
<g filter="url(#filter0_d_812_3)">
<path d="M170.558 22.2077C172.012 21.908 174.409 21.459 177.428 21.2812C180.447 21.1035 184.057 21.2306 187.856 21.7685C191.654 22.3063 195.609 23.3018 199.356 24.5417C203.094 25.8009 206.623 27.3004 209.642 28.7577C216.598 32.1962 223.248 36.2521 229.485 40.9001C235.725 45.5431 241.583 50.6872 247.119 56.1435C258.202 67.0705 268.01 79.1768 277.384 91.4921C280.312 95.3485 285.299 101.884 284.471 102.337C283.605 102.811 279.846 98.7751 274.711 92.1062C268.485 84.0501 262.137 76.0638 255.375 68.4822C248.598 60.9261 241.396 53.7778 233.608 47.4784C227.895 42.8994 221.898 38.7188 215.599 35.1023C212.463 33.2645 209.253 31.5849 205.952 30.1329C202.654 28.6759 199.293 27.3874 195.856 26.4055C192.42 25.4237 188.924 24.679 185.4 24.3251C181.873 23.9764 178.328 23.9418 174.844 24.3848C171.36 24.8318 167.929 25.6887 164.664 26.9705C161.414 28.2832 158.334 30.0157 155.576 32.1772C153.118 34.1329 150.932 36.4518 149.169 39.0529C147.413 41.652 146.093 44.5775 145.253 47.6444C144.404 50.7092 144.07 53.937 144.256 57.1212C144.443 60.3054 145.171 63.4584 146.477 66.3397C146.616 66.7102 146.812 67.0534 147 67.3987L147.558 68.4404C147.964 69.1147 148.42 69.7545 148.851 70.4095C149.78 71.6544 150.866 72.7815 152.061 73.7722C154.456 75.7567 157.3 77.1882 160.287 77.9777C163.269 78.7683 166.414 78.9558 169.401 78.3847C172.384 77.8279 175.216 76.5196 177.426 74.4651C179.536 72.5532 181.064 70.0416 181.92 67.2892C182.729 64.518 182.91 61.5205 182.489 58.5825C181.67 52.6924 178.823 47.0541 174.778 42.7409C173.754 41.6725 172.676 40.6611 171.503 39.778C170.332 38.8991 169.106 38.1037 167.814 37.4513C166.542 36.7939 165.126 36.3382 163.754 35.8193L161.63 35.2362L161.099 35.0904C160.922 35.0431 160.739 35.0194 160.56 34.9814L159.478 34.7777C156.592 34.255 153.641 34.0452 150.697 34.2173C149.958 34.2196 149.227 34.3029 148.489 34.3748C147.755 34.4499 147.019 34.4952 146.287 34.6265L144.091 34.9684L141.911 35.424C141.281 35.5386 140.663 35.7199 140.043 35.8755C139.421 36.0403 138.798 36.1837 138.181 36.369C136.952 36.7561 135.714 37.093 134.498 37.5376C133.889 37.7516 133.277 37.9575 132.674 38.1787L130.868 38.8805C130.261 39.1068 129.665 39.3568 129.071 39.615L127.285 40.3773L125.52 41.1908C124.928 41.4572 124.342 41.7349 123.761 42.029L122.014 42.8949L120.288 43.8122C119.137 44.4281 117.983 45.0317 116.839 45.659L113.449 47.6218C108.965 50.2952 104.56 53.1318 100.359 56.2575L98.7731 57.4142C98.2445 57.7998 97.7372 58.2193 97.2197 58.6151L94.1229 61.0407L91.1127 63.5752C90.6154 64.0009 90.1009 64.4091 89.6167 64.8533L88.1568 66.1747C87.2477 67.0133 86.2669 67.8699 85.3168 68.8148C84.3677 69.7638 83.3959 70.7402 82.4093 71.7248C81.9104 72.2119 81.4357 72.7278 80.957 73.2448C80.4773 73.7576 79.9976 74.2704 79.5179 74.7833C79.0372 75.292 78.5604 75.7998 78.0826 76.3034C77.6208 76.8205 77.162 77.3324 76.7101 77.8383C75.9613 78.6759 75.0761 79.6437 74.1497 80.7003C73.2455 81.7776 72.2831 82.9261 71.3197 84.0705C70.8285 84.6385 70.3673 85.2252 69.9131 85.8058C69.4578 86.3823 69.0054 86.9536 68.5728 87.5026C68.1362 88.0526 67.7154 88.5812 67.3172 89.0823C66.9311 89.5978 66.5667 90.0817 66.2348 90.5269C65.0805 92.0724 63.8408 93.6481 62.8374 95.256C61.6566 97.0829 60.6639 98.5486 59.9259 99.7323C59.1668 100.9 58.5801 101.727 58.1511 102.223C57.2979 103.217 57.0753 102.903 57.3981 101.361C57.5409 100.684 56.8885 101.149 57.8786 99.252C57.9178 99.1724 58.0012 99.0163 58.0374 98.9418C60.9457 93.1059 65.0548 87.8624 69.2301 82.6808C79.5141 69.9704 91.6403 58.8426 105.095 49.7579C105.514 49.4739 105.929 49.1777 106.354 48.901L107.636 48.0822L110.205 46.4477C111.052 45.8861 111.941 45.4016 112.811 44.878L115.432 43.3349C117.199 42.3463 118.988 41.3957 120.773 40.4246L123.497 39.0563L126.257 37.766C129.967 36.098 133.781 34.6437 137.713 33.526C141.641 32.4092 145.687 31.629 149.807 31.3797L151.706 31.3174L152.657 31.2878L153.609 31.3238L155.515 31.3946C156.149 31.4449 156.783 31.5299 157.416 31.5935C158.687 31.6929 159.94 31.9888 161.198 32.2182C161.515 32.2695 161.823 32.3534 162.133 32.4414L163.06 32.7014L163.987 32.9614C164.295 33.0453 164.608 33.1283 164.906 33.2541L166.718 33.9284C167.324 34.1341 167.919 34.4205 168.517 34.6978C169.118 34.97 169.681 35.3126 170.261 35.6205C170.815 35.9742 171.387 36.3015 171.923 36.6859C174.079 38.1897 176.044 39.9727 177.737 41.9894C179.431 44.0062 180.895 46.22 182.079 48.5825C183.249 50.9531 184.162 53.4623 184.727 56.0674C185.263 58.6755 185.506 61.3747 185.227 64.0522L185.111 65.0537C185.068 65.3872 184.994 65.7153 184.934 66.0487C184.831 66.7155 184.63 67.3633 184.465 68.0195C184.057 69.3037 183.583 70.5824 182.914 71.7533C182.742 72.0798 182.567 72.4073 182.36 72.712L181.76 73.6387C181.305 74.2152 180.889 74.8298 180.374 75.3557C179.41 76.4612 178.287 77.4449 177.069 78.2651C174.632 79.9148 171.801 80.9261 168.901 81.2746L169 81.263C165.98 81.7069 162.896 81.5218 159.932 80.7919C156.969 80.0619 154.12 78.7798 151.591 76.9685C149.201 75.2748 147.083 73.029 145.529 70.4757C143.946 67.9386 142.814 65.1137 142.151 62.2018C140.82 56.3615 141.286 50.2188 143.182 44.6761C144.128 41.8966 145.472 39.2743 147.146 36.905C148.815 34.5459 150.778 32.4528 152.933 30.6344C157.247 27.0007 162.273 24.4834 167.421 23.0256C167.823 22.8941 168.301 22.7611 168.828 22.6202C169.381 22.503 169.95 22.3255 170.558 22.2077Z" fill="#FFA800" fill-opacity="0.9"/>
<path d="M23.44 107.568C22.5333 107.568 21.7867 107.434 21.2 107.168C20.6667 106.901 20.2133 106.421 19.84 105.728L5.04 73.4877C4.45333 72.2077 4.32 71.2477 4.64 70.6077C4.96 69.9143 5.70667 69.2743 6.88 68.6877C7.94667 68.1543 8.85333 67.9943 9.6 68.2077C10.3467 68.3677 10.9867 69.061 11.52 70.2877L23.44 98.6877L35.12 71.0877C35.7067 69.861 36.3467 68.981 37.04 68.4477C37.7333 67.9143 38.8267 68.021 40.32 68.7677C41.76 69.461 42.48 70.261 42.48 71.1677C42.48 72.021 42.24 72.9543 41.76 73.9677L27.04 105.648C26.7733 106.288 26.3467 106.768 25.76 107.088C25.1733 107.408 24.4 107.568 23.44 107.568ZM53.9288 107.408C52.9154 107.408 52.1421 107.248 51.6088 106.928C51.1288 106.661 50.8088 106.261 50.6488 105.728C50.4888 105.194 50.4088 104.554 50.4088 103.808V72.2077C50.4088 71.461 50.4888 70.821 50.6488 70.2877C50.8088 69.7543 51.1288 69.3543 51.6088 69.0877C52.1421 68.821 52.9421 68.6877 54.0088 68.6877C55.0221 68.6877 55.7688 68.8477 56.2488 69.1677C56.7288 69.4343 57.0488 69.8343 57.2088 70.3677C57.3688 70.901 57.4488 71.5677 57.4488 72.3677V103.888C57.4488 104.634 57.3688 105.274 57.2088 105.808C57.0488 106.341 56.7021 106.741 56.1688 107.008C55.6888 107.274 54.9421 107.408 53.9288 107.408ZM53.9288 59.0877C52.7554 59.0877 51.8754 58.9277 51.2888 58.6077C50.7021 58.2343 50.3021 57.7277 50.0888 57.0877C49.9288 56.4477 49.8488 55.701 49.8488 54.8477C49.8488 53.9943 49.9554 53.2743 50.1688 52.6877C50.3821 52.0477 50.7821 51.5943 51.3688 51.3277C51.9554 51.0077 52.8354 50.8477 54.0088 50.8477C55.1288 50.8477 55.9821 51.0077 56.5688 51.3277C57.1554 51.6477 57.5288 52.1277 57.6888 52.7677C57.9021 53.4077 58.0088 54.1543 58.0088 55.0077C58.0088 55.861 57.9021 56.6077 57.6888 57.2477C57.5288 57.8343 57.1554 58.2877 56.5688 58.6077C55.9821 58.9277 55.1021 59.0877 53.9288 59.0877ZM86.1394 107.808C82.9394 107.808 80.086 107.274 77.5794 106.208C75.0727 105.141 72.9394 103.701 71.1794 101.888C69.4727 100.021 68.166 97.8877 67.2594 95.4877C66.3527 93.0877 65.8994 90.501 65.8994 87.7277C65.8994 84.0477 66.7527 80.7677 68.4594 77.8877C70.166 75.0077 72.5127 72.741 75.4994 71.0877C78.5394 69.381 82.006 68.5277 85.8994 68.5277C88.566 68.5277 90.9394 68.9543 93.0194 69.8077C95.1527 70.6077 96.966 71.701 98.4594 73.0877C99.9527 74.4743 101.099 76.021 101.899 77.7277C102.699 79.4343 103.099 81.141 103.099 82.8477C103.099 85.5677 102.459 87.4877 101.179 88.6077C99.8994 89.6743 98.326 90.2077 96.4594 90.2077H73.3394C73.286 92.5543 73.8994 94.581 75.1794 96.2877C76.5127 97.941 78.166 99.221 80.1394 100.128C82.166 101.034 84.1927 101.488 86.2194 101.488C87.7127 101.488 88.9927 101.408 90.0594 101.248C91.126 101.088 92.0594 100.874 92.8594 100.608C93.6594 100.341 94.3527 100.074 94.9394 99.8077C95.526 99.541 96.0327 99.2743 96.4594 99.0077C96.9394 98.741 97.3927 98.5543 97.8194 98.4477C98.2994 98.341 98.7527 98.3943 99.1794 98.6077C99.6594 98.7677 100.033 99.1143 100.299 99.6477C100.619 100.074 100.833 100.474 100.939 100.848C101.046 101.221 101.099 101.621 101.099 102.048C101.099 102.794 100.459 103.621 99.1794 104.528C97.8994 105.434 96.1127 106.208 93.8194 106.848C91.5794 107.488 89.0194 107.808 86.1394 107.808ZM73.3394 85.4877H93.4194C94.4327 85.4877 95.1794 85.3543 95.6594 85.0877C96.1927 84.821 96.4594 84.101 96.4594 82.9277C96.4594 81.4343 96.006 80.101 95.0994 78.9277C94.1927 77.701 92.9394 76.7143 91.3394 75.9677C89.7927 75.221 88.006 74.8477 85.9794 74.8477C83.6327 74.8477 81.4727 75.3277 79.4994 76.2877C77.5794 77.1943 76.0594 78.4477 74.9394 80.0477C73.8194 81.6477 73.286 83.461 73.3394 85.4877ZM122.121 107.168C121.321 107.168 120.681 107.034 120.201 106.768C119.774 106.554 119.427 106.261 119.161 105.888C118.947 105.461 118.787 105.008 118.681 104.528L106.281 73.0077C106.014 72.2077 105.881 71.541 105.881 71.0077C105.934 70.4743 106.147 70.021 106.521 69.6477C106.947 69.2743 107.561 68.9543 108.361 68.6877C109.641 68.2077 110.627 68.101 111.321 68.3677C112.014 68.581 112.574 69.2743 113.001 70.4477L122.121 94.7677L130.601 71.0077C130.761 70.581 130.947 70.181 131.161 69.8077C131.427 69.381 131.801 69.0343 132.281 68.7677C132.761 68.501 133.374 68.3677 134.121 68.3677C134.974 68.3677 135.614 68.501 136.041 68.7677C136.521 69.0343 136.894 69.3543 137.161 69.7277C137.481 70.101 137.694 70.501 137.801 70.9277L146.201 94.9277L155.321 70.8477C155.801 69.5677 156.387 68.741 157.081 68.3677C157.827 67.9943 158.841 68.0477 160.121 68.5277C161.241 68.901 161.987 69.4343 162.361 70.1277C162.734 70.821 162.654 71.8077 162.121 73.0877L149.721 104.608C149.561 105.034 149.347 105.461 149.081 105.888C148.867 106.261 148.521 106.554 148.041 106.768C147.614 107.034 147.027 107.168 146.281 107.168C145.534 107.168 144.947 107.061 144.521 106.848C144.094 106.634 143.747 106.314 143.481 105.888C143.214 105.408 142.974 104.901 142.761 104.368L134.201 79.7277L125.561 104.368C125.347 105.008 125.107 105.541 124.841 105.968C124.627 106.394 124.307 106.688 123.881 106.848C123.454 107.061 122.867 107.168 122.121 107.168ZM176.054 107.488C175.094 107.488 174.347 107.328 173.814 107.008C173.334 106.688 173.014 106.261 172.854 105.728C172.694 105.141 172.614 104.474 172.614 103.728V63.5677C172.614 61.4343 172.854 59.5677 173.334 57.9677C173.814 56.3677 174.614 55.0343 175.734 53.9677C176.854 52.901 178.267 52.101 179.974 51.5677C181.734 50.981 183.894 50.6877 186.454 50.6877C187.147 50.6877 187.76 50.7677 188.294 50.9277C188.88 51.0343 189.307 51.3543 189.574 51.8877C189.894 52.3677 190.054 53.1143 190.054 54.1277C190.054 55.141 189.894 55.9143 189.574 56.4477C189.254 56.9277 188.827 57.2477 188.294 57.4077C187.76 57.5677 187.12 57.6477 186.374 57.6477C185.147 57.6477 184.08 57.701 183.174 57.8077C182.32 57.9143 181.654 58.1543 181.174 58.5277C180.694 58.901 180.32 59.4877 180.054 60.2877C179.84 61.0343 179.734 62.0743 179.734 63.4077V103.968C179.734 104.661 179.627 105.274 179.414 105.808C179.254 106.341 178.907 106.741 178.374 107.008C177.894 107.328 177.12 107.488 176.054 107.488ZM168.534 69.5677L176.214 69.6477L187.334 69.4877C188.08 69.4877 188.72 69.5677 189.254 69.7277C189.787 69.8343 190.187 70.1543 190.454 70.6877C190.774 71.1677 190.934 71.9143 190.934 72.9277C190.934 73.941 190.8 74.7143 190.534 75.2477C190.267 75.7277 189.867 76.0477 189.334 76.2077C188.8 76.3677 188.16 76.4477 187.414 76.4477L176.454 76.2877L168.374 76.3677C167.254 76.3677 166.48 76.101 166.054 75.5677C165.68 75.0343 165.494 74.1543 165.494 72.9277C165.494 71.7543 165.734 70.901 166.214 70.3677C166.694 69.8343 167.467 69.5677 168.534 69.5677ZM213.388 107.888C210.775 107.888 208.268 107.381 205.868 106.368C203.521 105.354 201.415 103.968 199.548 102.208C197.681 100.394 196.215 98.2877 195.148 95.8877C194.081 93.4877 193.548 90.8743 193.548 88.0477C193.548 85.2743 194.055 82.7143 195.068 80.3677C196.081 77.9677 197.495 75.861 199.308 74.0477C201.121 72.2343 203.201 70.821 205.548 69.8077C207.948 68.741 210.508 68.2077 213.228 68.2077C216.908 68.2077 220.215 69.0877 223.148 70.8477C226.135 72.5543 228.508 74.901 230.268 77.8877C232.028 80.8743 232.908 84.2343 232.908 87.9677C232.908 90.901 232.375 93.5943 231.308 96.0477C230.241 98.4477 228.801 100.528 226.988 102.288C225.175 104.048 223.095 105.434 220.748 106.448C218.401 107.408 215.948 107.888 213.388 107.888ZM213.228 100.928C215.468 100.928 217.548 100.368 219.468 99.2477C221.388 98.1277 222.935 96.581 224.108 94.6077C225.281 92.6343 225.868 90.3943 225.868 87.8877C225.868 85.381 225.308 83.1677 224.188 81.2477C223.121 79.3277 221.628 77.8343 219.708 76.7677C217.788 75.701 215.601 75.1677 213.148 75.1677C210.801 75.1677 208.668 75.7277 206.748 76.8477C204.881 77.9677 203.361 79.4877 202.188 81.4077C201.068 83.3277 200.508 85.5143 200.508 87.9677C200.508 90.5277 201.095 92.7943 202.268 94.7677C203.441 96.6877 204.988 98.2077 206.908 99.3277C208.881 100.394 210.988 100.928 213.228 100.928ZM258.154 107.888C255.54 107.888 253.034 107.381 250.634 106.368C248.287 105.354 246.18 103.968 244.314 102.208C242.447 100.394 240.98 98.2877 239.914 95.8877C238.847 93.4877 238.314 90.8743 238.314 88.0477C238.314 85.2743 238.82 82.7143 239.834 80.3677C240.847 77.9677 242.26 75.861 244.074 74.0477C245.887 72.2343 247.967 70.821 250.314 69.8077C252.714 68.741 255.274 68.2077 257.994 68.2077C261.674 68.2077 264.98 69.0877 267.914 70.8477C270.9 72.5543 273.274 74.901 275.034 77.8877C276.794 80.8743 277.674 84.2343 277.674 87.9677C277.674 90.901 277.14 93.5943 276.074 96.0477C275.007 98.4477 273.567 100.528 271.754 102.288C269.94 104.048 267.86 105.434 265.514 106.448C263.167 107.408 260.714 107.888 258.154 107.888ZM257.994 100.928C260.234 100.928 262.314 100.368 264.234 99.2477C266.154 98.1277 267.7 96.581 268.874 94.6077C270.047 92.6343 270.634 90.3943 270.634 87.8877C270.634 85.381 270.074 83.1677 268.954 81.2477C267.887 79.3277 266.394 77.8343 264.474 76.7677C262.554 75.701 260.367 75.1677 257.914 75.1677C255.567 75.1677 253.434 75.7277 251.514 76.8477C249.647 77.9677 248.127 79.4877 246.954 81.4077C245.834 83.3277 245.274 85.5143 245.274 87.9677C245.274 90.5277 245.86 92.7943 247.034 94.7677C248.207 96.6877 249.754 98.2077 251.674 99.3277C253.647 100.394 255.754 100.928 257.994 100.928ZM302.119 107.408C299.719 107.408 297.426 106.928 295.239 105.968C293.053 105.008 291.133 103.648 289.479 101.888C287.879 100.128 286.599 98.0743 285.639 95.7277C284.733 93.3277 284.279 90.7143 284.279 87.8877C284.279 85.1143 284.733 82.5543 285.639 80.2077C286.599 77.861 287.879 75.8343 289.479 74.1277C291.133 72.3677 293.053 71.0077 295.239 70.0477C297.426 69.0877 299.719 68.6077 302.119 68.6077C304.733 68.6077 307.079 69.0877 309.159 70.0477C311.293 71.0077 313.106 72.3677 314.599 74.1277C316.146 75.8343 317.319 77.8877 318.119 80.2877C318.919 82.6343 319.319 85.1943 319.319 87.9677C319.373 90.7943 318.973 93.381 318.119 95.7277C317.319 98.0743 316.173 100.128 314.679 101.888C313.186 103.648 311.373 105.008 309.239 105.968C307.159 106.928 304.786 107.408 302.119 107.408ZM303.159 100.608C305.399 100.608 307.399 100.074 309.159 99.0077C310.973 97.941 312.386 96.4743 313.399 94.6077C314.466 92.6877 314.999 90.501 314.999 88.0477C314.999 85.541 314.466 83.3543 313.399 81.4877C312.386 79.5677 310.973 78.0743 309.159 77.0077C307.399 75.941 305.399 75.4077 303.159 75.4077C300.919 75.4077 298.893 75.941 297.079 77.0077C295.266 78.0743 293.826 79.5677 292.759 81.4877C291.746 83.3543 291.239 85.541 291.239 88.0477C291.239 90.501 291.746 92.6877 292.759 94.6077C293.826 96.4743 295.266 97.941 297.079 99.0077C298.946 100.074 300.973 100.608 303.159 100.608ZM318.839 107.408C317.666 107.408 316.813 107.194 316.279 106.768C315.746 106.341 315.426 105.621 315.319 104.608V54.5277C315.319 53.7277 315.373 53.061 315.479 52.5277C315.639 51.9943 315.959 51.5943 316.439 51.3277C316.973 51.0077 317.746 50.8477 318.759 50.8477C319.773 50.8477 320.519 51.0077 320.999 51.3277C321.533 51.5943 321.879 51.9943 322.039 52.5277C322.199 53.061 322.279 53.701 322.279 54.4477V103.728C322.279 104.474 322.199 105.141 322.039 105.728C321.879 106.261 321.559 106.661 321.079 106.928C320.599 107.248 319.853 107.408 318.839 107.408Z" fill="#FED9B7"/>
</g>
<defs>
<filter id="filter0_d_812_3" x="0.160004" y="21.2059" width="326.119" height="94.6817" filterUnits="userSpaceOnUse" color-interpolation-filters="sRGB">
<feFlood flood-opacity="0" result="BackgroundImageFix"/>
<feColorMatrix in="SourceAlpha" type="matrix" values="0 0 0 0 0 0 0 0 0 0 0 0 0 0 0 0 0 0 127 0" result="hardAlpha"/>
<feOffset dy="4"/>
<feGaussianBlur stdDeviation="2"/>
<feComposite in2="hardAlpha" operator="out"/>
<feColorMatrix type="matrix" values="0 0 0 0 0 0 0 0 0 0 0 0 0 0 0 0 0 0 0.25 0"/>
<feBlend mode="normal" in2="BackgroundImageFix" result="effect1_dropShadow_812_3"/>
<feBlend mode="normal" in="SourceGraphic" in2="effect1_dropShadow_812_3" result="shape"/>
</filter>
</defs>
</svg>
